<mxfile host="app.diagrams.net" modified="2024-07-21T07:40:47.956Z" agent="Mozilla/5.0 (Windows NT 10.0; Win64; x64) AppleWebKit/537.36 (KHTML, like Gecko) Chrome/126.0.0.0 Safari/537.36 Edg/126.0.0.0" etag="X1cM23_8Lq1c8EydEBMy" version="24.7.2" type="device">
  <diagram name="第 1 页" id="aKhjywSmSyIfMqFl346a">
    <mxGraphModel dx="5247" dy="3071" grid="1" gridSize="10" guides="1" tooltips="1" connect="1" arrows="1" fold="1" page="1" pageScale="1" pageWidth="4681" pageHeight="3300" math="0" shadow="0">
      <root>
        <mxCell id="0" />
        <mxCell id="1" parent="0" />
        <mxCell id="AWAHnnfGsUUnSCSiyDVp-12" value="" style="rounded=1;whiteSpace=wrap;html=1;fillColor=#fff2cc;strokeColor=#d6b656;" parent="1" vertex="1">
          <mxGeometry x="1190" y="310" width="800" height="560" as="geometry" />
        </mxCell>
        <mxCell id="AWAHnnfGsUUnSCSiyDVp-13" value="&lt;font style=&quot;font-size: 48px;&quot;&gt;CPU&lt;/font&gt;" style="rounded=1;whiteSpace=wrap;html=1;fillColor=#ffe6cc;strokeColor=#d79b00;" parent="1" vertex="1">
          <mxGeometry x="1680" y="380" width="170" height="130" as="geometry" />
        </mxCell>
        <mxCell id="AWAHnnfGsUUnSCSiyDVp-14" value="" style="rounded=1;whiteSpace=wrap;html=1;fillColor=#fff2cc;strokeColor=#d6b656;" parent="1" vertex="1">
          <mxGeometry x="2750" y="310" width="290" height="560" as="geometry" />
        </mxCell>
        <mxCell id="AWAHnnfGsUUnSCSiyDVp-15" value="&lt;font style=&quot;font-size: 48px;&quot;&gt;&lt;b style=&quot;&quot;&gt;物理内存&lt;/b&gt;&lt;/font&gt;" style="text;html=1;align=center;verticalAlign=middle;resizable=0;points=[];autosize=1;strokeColor=none;fillColor=none;" parent="1" vertex="1">
          <mxGeometry x="2785" y="230" width="220" height="70" as="geometry" />
        </mxCell>
        <mxCell id="AWAHnnfGsUUnSCSiyDVp-16" value="&lt;font style=&quot;font-size: 48px;&quot;&gt;物理页&lt;/font&gt;" style="rounded=1;whiteSpace=wrap;html=1;fillColor=#dae8fc;strokeColor=#6c8ebf;" parent="1" vertex="1">
          <mxGeometry x="2750" y="340" width="290" height="100" as="geometry" />
        </mxCell>
        <mxCell id="AWAHnnfGsUUnSCSiyDVp-17" value="&lt;span style=&quot;font-size: 48px;&quot;&gt;物理页&lt;/span&gt;" style="rounded=1;whiteSpace=wrap;html=1;fillColor=#dae8fc;strokeColor=#6c8ebf;" parent="1" vertex="1">
          <mxGeometry x="2750" y="437" width="290" height="93" as="geometry" />
        </mxCell>
        <mxCell id="AWAHnnfGsUUnSCSiyDVp-18" value="&lt;span style=&quot;font-size: 48px;&quot;&gt;物理页&lt;/span&gt;" style="rounded=1;whiteSpace=wrap;html=1;fillColor=#dae8fc;strokeColor=#6c8ebf;" parent="1" vertex="1">
          <mxGeometry x="2750" y="533" width="290" height="95" as="geometry" />
        </mxCell>
        <mxCell id="AWAHnnfGsUUnSCSiyDVp-19" value="&lt;font style=&quot;font-size: 48px;&quot;&gt;内核空间&lt;/font&gt;" style="rounded=0;whiteSpace=wrap;html=1;fillColor=#ffe6cc;strokeColor=#d79b00;" parent="1" vertex="1">
          <mxGeometry x="1270" y="1730" width="1790" height="190" as="geometry" />
        </mxCell>
        <mxCell id="AWAHnnfGsUUnSCSiyDVp-20" value="&lt;font style=&quot;font-size: 48px;&quot;&gt;&lt;b style=&quot;&quot;&gt;虚拟内存&lt;/b&gt;&lt;/font&gt;" style="text;html=1;align=center;verticalAlign=middle;resizable=0;points=[];autosize=1;strokeColor=none;fillColor=none;" parent="1" vertex="1">
          <mxGeometry x="2059" y="1945" width="220" height="70" as="geometry" />
        </mxCell>
        <mxCell id="AWAHnnfGsUUnSCSiyDVp-22" value="&lt;font style=&quot;font-size: 48px;&quot;&gt;用户空间&lt;/font&gt;" style="rounded=1;whiteSpace=wrap;html=1;fillColor=#dae8fc;strokeColor=#6c8ebf;" parent="1" vertex="1">
          <mxGeometry x="1270" y="1410" width="240" height="320" as="geometry" />
        </mxCell>
        <mxCell id="AWAHnnfGsUUnSCSiyDVp-23" value="&lt;font style=&quot;font-size: 48px;&quot;&gt;用户空间&lt;/font&gt;" style="rounded=1;whiteSpace=wrap;html=1;fillColor=#dae8fc;strokeColor=#6c8ebf;" parent="1" vertex="1">
          <mxGeometry x="2820" y="1410" width="240" height="320" as="geometry" />
        </mxCell>
        <mxCell id="AWAHnnfGsUUnSCSiyDVp-24" value="&lt;font style=&quot;font-size: 48px;&quot;&gt;用户空间&lt;/font&gt;" style="rounded=1;whiteSpace=wrap;html=1;fillColor=#dae8fc;strokeColor=#6c8ebf;" parent="1" vertex="1">
          <mxGeometry x="2045" y="1411" width="240" height="320" as="geometry" />
        </mxCell>
        <mxCell id="AWAHnnfGsUUnSCSiyDVp-25" value="&lt;font style=&quot;font-size: 48px;&quot;&gt;用户空间&lt;/font&gt;" style="rounded=1;whiteSpace=wrap;html=1;fillColor=#dae8fc;strokeColor=#6c8ebf;" parent="1" vertex="1">
          <mxGeometry x="1660" y="1410" width="240" height="320" as="geometry" />
        </mxCell>
        <mxCell id="AWAHnnfGsUUnSCSiyDVp-26" value="&lt;font style=&quot;font-size: 48px;&quot;&gt;用户空间&lt;/font&gt;" style="rounded=1;whiteSpace=wrap;html=1;fillColor=#dae8fc;strokeColor=#6c8ebf;" parent="1" vertex="1">
          <mxGeometry x="2430" y="1411" width="240" height="320" as="geometry" />
        </mxCell>
        <mxCell id="sg1HLdPA8sdvHH-0-MiF-2" value="" style="shape=cylinder3;whiteSpace=wrap;html=1;boundedLbl=1;backgroundOutline=1;size=15;fillColor=#fff2cc;strokeColor=#d6b656;" vertex="1" parent="1">
          <mxGeometry x="3510" y="310" width="420" height="550" as="geometry" />
        </mxCell>
        <mxCell id="sg1HLdPA8sdvHH-0-MiF-3" value="" style="whiteSpace=wrap;html=1;aspect=fixed;fillColor=#ffe6cc;strokeColor=#d79b00;" vertex="1" parent="1">
          <mxGeometry x="3720" y="380" width="80" height="80" as="geometry" />
        </mxCell>
        <mxCell id="sg1HLdPA8sdvHH-0-MiF-4" value="" style="whiteSpace=wrap;html=1;aspect=fixed;" vertex="1" parent="1">
          <mxGeometry x="3750" y="410" width="80" height="80" as="geometry" />
        </mxCell>
        <mxCell id="sg1HLdPA8sdvHH-0-MiF-5" value="" style="whiteSpace=wrap;html=1;aspect=fixed;" vertex="1" parent="1">
          <mxGeometry x="3780" y="440" width="80" height="80" as="geometry" />
        </mxCell>
        <mxCell id="sg1HLdPA8sdvHH-0-MiF-10" value="" style="whiteSpace=wrap;html=1;aspect=fixed;" vertex="1" parent="1">
          <mxGeometry x="3590" y="590" width="80" height="80" as="geometry" />
        </mxCell>
        <mxCell id="sg1HLdPA8sdvHH-0-MiF-11" value="" style="whiteSpace=wrap;html=1;aspect=fixed;" vertex="1" parent="1">
          <mxGeometry x="3610" y="610" width="80" height="80" as="geometry" />
        </mxCell>
        <mxCell id="sg1HLdPA8sdvHH-0-MiF-12" value="" style="whiteSpace=wrap;html=1;aspect=fixed;fillColor=#f8cecc;strokeColor=#b85450;" vertex="1" parent="1">
          <mxGeometry x="3630" y="640" width="80" height="80" as="geometry" />
        </mxCell>
        <mxCell id="sg1HLdPA8sdvHH-0-MiF-13" value="&lt;font style=&quot;font-size: 48px;&quot;&gt;&lt;b style=&quot;&quot;&gt;磁盘&lt;/b&gt;&lt;/font&gt;" style="text;html=1;align=center;verticalAlign=middle;resizable=0;points=[];autosize=1;strokeColor=none;fillColor=none;" vertex="1" parent="1">
          <mxGeometry x="3650" y="230" width="120" height="70" as="geometry" />
        </mxCell>
        <mxCell id="sg1HLdPA8sdvHH-0-MiF-14" value="&lt;font style=&quot;font-size: 48px;&quot;&gt;MMU&lt;/font&gt;" style="rounded=1;whiteSpace=wrap;html=1;fillColor=#ffe6cc;strokeColor=#d79b00;" vertex="1" parent="1">
          <mxGeometry x="1680" y="610" width="170" height="130" as="geometry" />
        </mxCell>
        <mxCell id="sg1HLdPA8sdvHH-0-MiF-15" value="&lt;font style=&quot;font-size: 48px;&quot;&gt;TLB&lt;/font&gt;" style="rounded=1;whiteSpace=wrap;html=1;fillColor=#ffe6cc;strokeColor=#d79b00;" vertex="1" parent="1">
          <mxGeometry x="1330" y="610" width="170" height="130" as="geometry" />
        </mxCell>
        <mxCell id="sg1HLdPA8sdvHH-0-MiF-16" value="&lt;font style=&quot;font-size: 48px;&quot;&gt;&lt;b style=&quot;&quot;&gt;进程1&lt;/b&gt;&lt;/font&gt;" style="text;html=1;align=center;verticalAlign=middle;resizable=0;points=[];autosize=1;strokeColor=none;fillColor=none;" vertex="1" parent="1">
          <mxGeometry x="1318" y="1330" width="150" height="70" as="geometry" />
        </mxCell>
        <mxCell id="sg1HLdPA8sdvHH-0-MiF-17" value="&lt;font style=&quot;font-size: 48px;&quot;&gt;&lt;b style=&quot;&quot;&gt;进程2&lt;/b&gt;&lt;/font&gt;" style="text;html=1;align=center;verticalAlign=middle;resizable=0;points=[];autosize=1;strokeColor=none;fillColor=none;" vertex="1" parent="1">
          <mxGeometry x="1705" y="1330" width="150" height="70" as="geometry" />
        </mxCell>
        <mxCell id="sg1HLdPA8sdvHH-0-MiF-18" value="&lt;font style=&quot;font-size: 48px;&quot;&gt;&lt;b style=&quot;&quot;&gt;进程3&lt;/b&gt;&lt;/font&gt;" style="text;html=1;align=center;verticalAlign=middle;resizable=0;points=[];autosize=1;strokeColor=none;fillColor=none;" vertex="1" parent="1">
          <mxGeometry x="2090" y="1330" width="150" height="70" as="geometry" />
        </mxCell>
        <mxCell id="sg1HLdPA8sdvHH-0-MiF-19" value="&lt;font style=&quot;font-size: 48px;&quot;&gt;&lt;b style=&quot;&quot;&gt;进程4&lt;/b&gt;&lt;/font&gt;" style="text;html=1;align=center;verticalAlign=middle;resizable=0;points=[];autosize=1;strokeColor=none;fillColor=none;" vertex="1" parent="1">
          <mxGeometry x="2475" y="1330" width="150" height="70" as="geometry" />
        </mxCell>
        <mxCell id="sg1HLdPA8sdvHH-0-MiF-20" value="&lt;font style=&quot;font-size: 48px;&quot;&gt;&lt;b style=&quot;&quot;&gt;进程5&lt;/b&gt;&lt;/font&gt;" style="text;html=1;align=center;verticalAlign=middle;resizable=0;points=[];autosize=1;strokeColor=none;fillColor=none;" vertex="1" parent="1">
          <mxGeometry x="2870" y="1330" width="150" height="70" as="geometry" />
        </mxCell>
        <mxCell id="sg1HLdPA8sdvHH-0-MiF-21" value="" style="shape=table;startSize=0;container=1;collapsible=0;childLayout=tableLayout;fontSize=16;strokeWidth=4;" vertex="1" parent="1">
          <mxGeometry x="2150" y="570" width="220" height="150" as="geometry" />
        </mxCell>
        <mxCell id="sg1HLdPA8sdvHH-0-MiF-22" value="" style="shape=tableRow;horizontal=0;startSize=0;swimlaneHead=0;swimlaneBody=0;strokeColor=inherit;top=0;left=0;bottom=0;right=0;collapsible=0;dropTarget=0;fillColor=none;points=[[0,0.5],[1,0.5]];portConstraint=eastwest;fontSize=16;" vertex="1" parent="sg1HLdPA8sdvHH-0-MiF-21">
          <mxGeometry width="220" height="50" as="geometry" />
        </mxCell>
        <mxCell id="sg1HLdPA8sdvHH-0-MiF-23" value="" style="shape=partialRectangle;html=1;whiteSpace=wrap;connectable=0;strokeColor=inherit;overflow=hidden;fillColor=none;top=0;left=0;bottom=0;right=0;pointerEvents=1;fontSize=16;" vertex="1" parent="sg1HLdPA8sdvHH-0-MiF-22">
          <mxGeometry width="73" height="50" as="geometry">
            <mxRectangle width="73" height="50" as="alternateBounds" />
          </mxGeometry>
        </mxCell>
        <mxCell id="sg1HLdPA8sdvHH-0-MiF-24" value="" style="shape=partialRectangle;html=1;whiteSpace=wrap;connectable=0;strokeColor=inherit;overflow=hidden;fillColor=none;top=0;left=0;bottom=0;right=0;pointerEvents=1;fontSize=16;" vertex="1" parent="sg1HLdPA8sdvHH-0-MiF-22">
          <mxGeometry x="73" width="74" height="50" as="geometry">
            <mxRectangle width="74" height="50" as="alternateBounds" />
          </mxGeometry>
        </mxCell>
        <mxCell id="sg1HLdPA8sdvHH-0-MiF-25" value="" style="shape=partialRectangle;html=1;whiteSpace=wrap;connectable=0;strokeColor=inherit;overflow=hidden;fillColor=none;top=0;left=0;bottom=0;right=0;pointerEvents=1;fontSize=16;" vertex="1" parent="sg1HLdPA8sdvHH-0-MiF-22">
          <mxGeometry x="147" width="73" height="50" as="geometry">
            <mxRectangle width="73" height="50" as="alternateBounds" />
          </mxGeometry>
        </mxCell>
        <mxCell id="sg1HLdPA8sdvHH-0-MiF-26" value="" style="shape=tableRow;horizontal=0;startSize=0;swimlaneHead=0;swimlaneBody=0;strokeColor=inherit;top=0;left=0;bottom=0;right=0;collapsible=0;dropTarget=0;fillColor=none;points=[[0,0.5],[1,0.5]];portConstraint=eastwest;fontSize=16;" vertex="1" parent="sg1HLdPA8sdvHH-0-MiF-21">
          <mxGeometry y="50" width="220" height="50" as="geometry" />
        </mxCell>
        <mxCell id="sg1HLdPA8sdvHH-0-MiF-27" value="" style="shape=partialRectangle;html=1;whiteSpace=wrap;connectable=0;strokeColor=inherit;overflow=hidden;fillColor=none;top=0;left=0;bottom=0;right=0;pointerEvents=1;fontSize=16;" vertex="1" parent="sg1HLdPA8sdvHH-0-MiF-26">
          <mxGeometry width="73" height="50" as="geometry">
            <mxRectangle width="73" height="50" as="alternateBounds" />
          </mxGeometry>
        </mxCell>
        <mxCell id="sg1HLdPA8sdvHH-0-MiF-28" value="" style="shape=partialRectangle;html=1;whiteSpace=wrap;connectable=0;strokeColor=inherit;overflow=hidden;fillColor=none;top=0;left=0;bottom=0;right=0;pointerEvents=1;fontSize=16;" vertex="1" parent="sg1HLdPA8sdvHH-0-MiF-26">
          <mxGeometry x="73" width="74" height="50" as="geometry">
            <mxRectangle width="74" height="50" as="alternateBounds" />
          </mxGeometry>
        </mxCell>
        <mxCell id="sg1HLdPA8sdvHH-0-MiF-29" value="" style="shape=partialRectangle;html=1;whiteSpace=wrap;connectable=0;strokeColor=inherit;overflow=hidden;fillColor=none;top=0;left=0;bottom=0;right=0;pointerEvents=1;fontSize=16;" vertex="1" parent="sg1HLdPA8sdvHH-0-MiF-26">
          <mxGeometry x="147" width="73" height="50" as="geometry">
            <mxRectangle width="73" height="50" as="alternateBounds" />
          </mxGeometry>
        </mxCell>
        <mxCell id="sg1HLdPA8sdvHH-0-MiF-30" value="" style="shape=tableRow;horizontal=0;startSize=0;swimlaneHead=0;swimlaneBody=0;strokeColor=inherit;top=0;left=0;bottom=0;right=0;collapsible=0;dropTarget=0;fillColor=none;points=[[0,0.5],[1,0.5]];portConstraint=eastwest;fontSize=16;" vertex="1" parent="sg1HLdPA8sdvHH-0-MiF-21">
          <mxGeometry y="100" width="220" height="50" as="geometry" />
        </mxCell>
        <mxCell id="sg1HLdPA8sdvHH-0-MiF-31" value="" style="shape=partialRectangle;html=1;whiteSpace=wrap;connectable=0;strokeColor=inherit;overflow=hidden;fillColor=none;top=0;left=0;bottom=0;right=0;pointerEvents=1;fontSize=16;" vertex="1" parent="sg1HLdPA8sdvHH-0-MiF-30">
          <mxGeometry width="73" height="50" as="geometry">
            <mxRectangle width="73" height="50" as="alternateBounds" />
          </mxGeometry>
        </mxCell>
        <mxCell id="sg1HLdPA8sdvHH-0-MiF-32" value="" style="shape=partialRectangle;html=1;whiteSpace=wrap;connectable=0;strokeColor=inherit;overflow=hidden;fillColor=none;top=0;left=0;bottom=0;right=0;pointerEvents=1;fontSize=16;" vertex="1" parent="sg1HLdPA8sdvHH-0-MiF-30">
          <mxGeometry x="73" width="74" height="50" as="geometry">
            <mxRectangle width="74" height="50" as="alternateBounds" />
          </mxGeometry>
        </mxCell>
        <mxCell id="sg1HLdPA8sdvHH-0-MiF-33" value="" style="shape=partialRectangle;html=1;whiteSpace=wrap;connectable=0;strokeColor=inherit;overflow=hidden;fillColor=none;top=0;left=0;bottom=0;right=0;pointerEvents=1;fontSize=16;" vertex="1" parent="sg1HLdPA8sdvHH-0-MiF-30">
          <mxGeometry x="147" width="73" height="50" as="geometry">
            <mxRectangle width="73" height="50" as="alternateBounds" />
          </mxGeometry>
        </mxCell>
        <mxCell id="sg1HLdPA8sdvHH-0-MiF-34" value="&lt;span style=&quot;font-size: 48px;&quot;&gt;&lt;b&gt;段/页/段页表&lt;/b&gt;&lt;/span&gt;" style="text;html=1;align=center;verticalAlign=middle;resizable=0;points=[];autosize=1;strokeColor=none;fillColor=none;" vertex="1" parent="1">
          <mxGeometry x="2115" y="480" width="290" height="70" as="geometry" />
        </mxCell>
        <mxCell id="sg1HLdPA8sdvHH-0-MiF-35" value="" style="html=1;shadow=0;dashed=0;align=center;verticalAlign=middle;shape=mxgraph.arrows2.arrow;dy=0.6;dx=40;direction=south;notch=0;strokeWidth=3;" vertex="1" parent="1">
          <mxGeometry x="1735" y="498" width="60" height="130" as="geometry" />
        </mxCell>
        <mxCell id="sg1HLdPA8sdvHH-0-MiF-36" value="" style="html=1;shadow=0;dashed=0;align=center;verticalAlign=middle;shape=mxgraph.arrows2.twoWayArrow;dy=0.65;dx=22;strokeWidth=3;" vertex="1" parent="1">
          <mxGeometry x="1463" y="650" width="240" height="50" as="geometry" />
        </mxCell>
        <mxCell id="sg1HLdPA8sdvHH-0-MiF-37" value="" style="endArrow=none;dashed=1;html=1;rounded=0;strokeWidth=5;" edge="1" parent="1">
          <mxGeometry width="50" height="50" relative="1" as="geometry">
            <mxPoint x="1865" y="670" as="sourcePoint" />
            <mxPoint x="2140" y="670" as="targetPoint" />
          </mxGeometry>
        </mxCell>
        <mxCell id="sg1HLdPA8sdvHH-0-MiF-38" value="" style="html=1;shadow=0;dashed=0;align=center;verticalAlign=middle;shape=mxgraph.arrows2.arrow;dy=0.6;dx=40;direction=north;notch=0;strokeWidth=3;" vertex="1" parent="1">
          <mxGeometry x="1735" y="820" width="75" height="490" as="geometry" />
        </mxCell>
        <mxCell id="sg1HLdPA8sdvHH-0-MiF-39" value="&lt;font style=&quot;font-size: 48px;&quot;&gt;&lt;b style=&quot;&quot;&gt;虚拟地址&lt;/b&gt;&lt;/font&gt;" style="text;html=1;align=center;verticalAlign=middle;resizable=0;points=[];autosize=1;strokeColor=none;fillColor=none;" vertex="1" parent="1">
          <mxGeometry x="1775" y="1090" width="220" height="70" as="geometry" />
        </mxCell>
        <mxCell id="sg1HLdPA8sdvHH-0-MiF-40" value="" style="html=1;shadow=0;dashed=0;align=center;verticalAlign=middle;shape=mxgraph.arrows2.arrow;dy=0.6;dx=40;notch=0;strokeWidth=3;" vertex="1" parent="1">
          <mxGeometry x="2380" y="610" width="360" height="70" as="geometry" />
        </mxCell>
        <mxCell id="sg1HLdPA8sdvHH-0-MiF-41" value="&lt;font style=&quot;font-size: 48px;&quot;&gt;&lt;b style=&quot;&quot;&gt;物理地址&lt;/b&gt;&lt;/font&gt;" style="text;html=1;align=center;verticalAlign=middle;resizable=0;points=[];autosize=1;strokeColor=none;fillColor=none;" vertex="1" parent="1">
          <mxGeometry x="2440" y="670" width="220" height="70" as="geometry" />
        </mxCell>
        <mxCell id="sg1HLdPA8sdvHH-0-MiF-42" value="" style="endArrow=classic;html=1;rounded=0;entryX=0;entryY=0.5;entryDx=0;entryDy=0;strokeWidth=3;" edge="1" parent="1" target="sg1HLdPA8sdvHH-0-MiF-3">
          <mxGeometry width="50" height="50" relative="1" as="geometry">
            <mxPoint x="3050" y="400" as="sourcePoint" />
            <mxPoint x="3100" y="350" as="targetPoint" />
          </mxGeometry>
        </mxCell>
        <mxCell id="sg1HLdPA8sdvHH-0-MiF-43" value="&lt;font style=&quot;font-size: 48px;&quot;&gt;&lt;b style=&quot;&quot;&gt;换出&lt;/b&gt;&lt;/font&gt;" style="text;html=1;align=center;verticalAlign=middle;resizable=0;points=[];autosize=1;strokeColor=none;fillColor=none;" vertex="1" parent="1">
          <mxGeometry x="3230" y="320" width="120" height="70" as="geometry" />
        </mxCell>
        <mxCell id="sg1HLdPA8sdvHH-0-MiF-44" value="" style="endArrow=classic;html=1;rounded=0;exitX=0;exitY=1;exitDx=0;exitDy=0;strokeWidth=3;" edge="1" parent="1">
          <mxGeometry width="50" height="50" relative="1" as="geometry">
            <mxPoint x="3630" y="680" as="sourcePoint" />
            <mxPoint x="3060" y="590" as="targetPoint" />
          </mxGeometry>
        </mxCell>
        <mxCell id="sg1HLdPA8sdvHH-0-MiF-45" value="&lt;font style=&quot;font-size: 48px;&quot;&gt;&lt;b style=&quot;&quot;&gt;换入&lt;/b&gt;&lt;/font&gt;" style="text;html=1;align=center;verticalAlign=middle;resizable=0;points=[];autosize=1;strokeColor=none;fillColor=none;" vertex="1" parent="1">
          <mxGeometry x="3240" y="640" width="120" height="70" as="geometry" />
        </mxCell>
        <mxCell id="sg1HLdPA8sdvHH-0-MiF-46" value="&lt;font color=&quot;#ff0000&quot; style=&quot;font-size: 36px;&quot;&gt;1&lt;/font&gt;" style="text;strokeColor=none;fillColor=none;html=1;fontSize=24;fontStyle=1;verticalAlign=middle;align=center;" vertex="1" parent="1">
          <mxGeometry x="2267" y="1960" width="100" height="40" as="geometry" />
        </mxCell>
        <mxCell id="sg1HLdPA8sdvHH-0-MiF-47" value="&lt;font color=&quot;#ff0000&quot; style=&quot;font-size: 36px;&quot;&gt;2&amp;nbsp; 3&lt;/font&gt;" style="text;strokeColor=none;fillColor=none;html=1;fontSize=24;fontStyle=1;verticalAlign=middle;align=center;" vertex="1" parent="1">
          <mxGeometry x="2202" y="437" width="100" height="40" as="geometry" />
        </mxCell>
        <mxCell id="sg1HLdPA8sdvHH-0-MiF-48" value="&lt;font color=&quot;#ff0000&quot; style=&quot;font-size: 36px;&quot;&gt;4&lt;/font&gt;" style="text;strokeColor=none;fillColor=none;html=1;fontSize=24;fontStyle=1;verticalAlign=middle;align=center;" vertex="1" parent="1">
          <mxGeometry x="1242" y="652" width="100" height="40" as="geometry" />
        </mxCell>
        <mxCell id="sg1HLdPA8sdvHH-0-MiF-49" value="&lt;div&gt;&lt;span style=&quot;font-size: 48px;&quot;&gt;&lt;b&gt;mmap&lt;/b&gt;&lt;/span&gt;&lt;/div&gt;&lt;font style=&quot;font-size: 48px;&quot;&gt;&lt;b style=&quot;&quot;&gt;malloc&lt;/b&gt;&lt;/font&gt;&lt;div&gt;&lt;font style=&quot;font-size: 48px;&quot;&gt;&lt;b style=&quot;&quot;&gt;brk&lt;/b&gt;&lt;/font&gt;&lt;/div&gt;" style="text;html=1;align=center;verticalAlign=middle;resizable=0;points=[];autosize=1;strokeColor=none;fillColor=none;" vertex="1" parent="1">
          <mxGeometry x="3680" y="1605" width="180" height="190" as="geometry" />
        </mxCell>
        <mxCell id="sg1HLdPA8sdvHH-0-MiF-50" value="&lt;font color=&quot;#ff0000&quot; style=&quot;font-size: 36px;&quot;&gt;5&lt;/font&gt;" style="text;strokeColor=none;fillColor=none;html=1;fontSize=24;fontStyle=1;verticalAlign=middle;align=center;" vertex="1" parent="1">
          <mxGeometry x="3840" y="1680" width="100" height="40" as="geometry" />
        </mxCell>
        <mxCell id="sg1HLdPA8sdvHH-0-MiF-51" value="" style="endArrow=none;html=1;rounded=0;strokeWidth=3;entryX=0;entryY=0;entryDx=0;entryDy=0;" edge="1" parent="1" target="sg1HLdPA8sdvHH-0-MiF-54">
          <mxGeometry width="50" height="50" relative="1" as="geometry">
            <mxPoint x="3060" y="1410" as="sourcePoint" />
            <mxPoint x="3190" y="1290" as="targetPoint" />
          </mxGeometry>
        </mxCell>
        <mxCell id="sg1HLdPA8sdvHH-0-MiF-52" value="" style="endArrow=none;html=1;rounded=0;strokeWidth=3;entryX=0;entryY=1;entryDx=0;entryDy=0;" edge="1" parent="1" target="sg1HLdPA8sdvHH-0-MiF-53">
          <mxGeometry width="50" height="50" relative="1" as="geometry">
            <mxPoint x="3070" y="1921" as="sourcePoint" />
            <mxPoint x="3200" y="1801" as="targetPoint" />
          </mxGeometry>
        </mxCell>
        <mxCell id="sg1HLdPA8sdvHH-0-MiF-53" value="" style="rounded=0;whiteSpace=wrap;html=1;fillColor=#fff2cc;strokeColor=#d6b656;" vertex="1" parent="1">
          <mxGeometry x="3230" y="1230" width="380" height="940" as="geometry" />
        </mxCell>
        <mxCell id="sg1HLdPA8sdvHH-0-MiF-54" value="&lt;font style=&quot;font-size: 48px;&quot;&gt;内核空间&lt;/font&gt;" style="rounded=0;whiteSpace=wrap;html=1;fillColor=#ffe6cc;strokeColor=#d79b00;" vertex="1" parent="1">
          <mxGeometry x="3230" y="1229" width="380" height="90" as="geometry" />
        </mxCell>
        <mxCell id="sg1HLdPA8sdvHH-0-MiF-55" value="&lt;font style=&quot;font-size: 48px;&quot;&gt;栈&lt;/font&gt;" style="rounded=0;whiteSpace=wrap;html=1;fillColor=#dae8fc;strokeColor=#6c8ebf;" vertex="1" parent="1">
          <mxGeometry x="3230" y="1319" width="380" height="90" as="geometry" />
        </mxCell>
        <mxCell id="sg1HLdPA8sdvHH-0-MiF-56" value="" style="html=1;shadow=0;dashed=0;align=center;verticalAlign=middle;shape=mxgraph.arrows2.arrow;dy=0.6;dx=40;direction=south;notch=0;fillColor=#000000;" vertex="1" parent="1">
          <mxGeometry x="3343" y="1411" width="40" height="100" as="geometry" />
        </mxCell>
        <mxCell id="sg1HLdPA8sdvHH-0-MiF-57" value="&lt;font style=&quot;font-size: 48px;&quot;&gt;文件映射&lt;/font&gt;" style="rounded=0;whiteSpace=wrap;html=1;fillColor=#dae8fc;strokeColor=#6c8ebf;" vertex="1" parent="1">
          <mxGeometry x="3230" y="1550" width="380" height="90" as="geometry" />
        </mxCell>
        <mxCell id="sg1HLdPA8sdvHH-0-MiF-58" value="" style="html=1;shadow=0;dashed=0;align=center;verticalAlign=middle;shape=mxgraph.arrows2.arrow;dy=0.6;dx=40;direction=north;notch=2.44;fillColor=#000000;" vertex="1" parent="1">
          <mxGeometry x="3480" y="1450" width="40" height="100" as="geometry" />
        </mxCell>
        <mxCell id="sg1HLdPA8sdvHH-0-MiF-59" value="&lt;font style=&quot;font-size: 48px;&quot;&gt;堆&lt;/font&gt;" style="rounded=0;whiteSpace=wrap;html=1;fillColor=#dae8fc;strokeColor=#6c8ebf;" vertex="1" parent="1">
          <mxGeometry x="3230" y="1750" width="380" height="90" as="geometry" />
        </mxCell>
        <mxCell id="sg1HLdPA8sdvHH-0-MiF-60" value="" style="html=1;shadow=0;dashed=0;align=center;verticalAlign=middle;shape=mxgraph.arrows2.arrow;dy=0.6;dx=40;direction=north;notch=2.44;fillColor=#000000;" vertex="1" parent="1">
          <mxGeometry x="3400" y="1650" width="40" height="100" as="geometry" />
        </mxCell>
        <mxCell id="sg1HLdPA8sdvHH-0-MiF-61" value="&lt;font style=&quot;font-size: 48px;&quot;&gt;BSS段&lt;/font&gt;" style="rounded=0;whiteSpace=wrap;html=1;fillColor=#dae8fc;strokeColor=#6c8ebf;" vertex="1" parent="1">
          <mxGeometry x="3230" y="1840" width="380" height="90" as="geometry" />
        </mxCell>
        <mxCell id="sg1HLdPA8sdvHH-0-MiF-62" value="&lt;font style=&quot;font-size: 48px;&quot;&gt;数据段&lt;/font&gt;" style="rounded=0;whiteSpace=wrap;html=1;fillColor=#dae8fc;strokeColor=#6c8ebf;" vertex="1" parent="1">
          <mxGeometry x="3230" y="1930" width="380" height="90" as="geometry" />
        </mxCell>
        <mxCell id="sg1HLdPA8sdvHH-0-MiF-63" value="&lt;font style=&quot;font-size: 48px;&quot;&gt;代码段&lt;/font&gt;" style="rounded=0;whiteSpace=wrap;html=1;fillColor=#dae8fc;strokeColor=#6c8ebf;" vertex="1" parent="1">
          <mxGeometry x="3230" y="2020" width="380" height="90" as="geometry" />
        </mxCell>
        <mxCell id="sg1HLdPA8sdvHH-0-MiF-64" value="&lt;font style=&quot;font-size: 48px;&quot;&gt;&lt;b style=&quot;&quot;&gt;0XFFFFFFFF&lt;/b&gt;&lt;/font&gt;" style="text;html=1;align=center;verticalAlign=middle;resizable=0;points=[];autosize=1;strokeColor=none;fillColor=none;" vertex="1" parent="1">
          <mxGeometry x="3630" y="1200" width="320" height="70" as="geometry" />
        </mxCell>
        <mxCell id="sg1HLdPA8sdvHH-0-MiF-65" value="&lt;font style=&quot;font-size: 48px;&quot;&gt;&lt;b style=&quot;&quot;&gt;0XC0000000&lt;/b&gt;&lt;/font&gt;&lt;span style=&quot;color: rgba(0, 0, 0, 0); font-family: monospace; font-size: 0px; text-align: start;&quot;&gt;%3CmxGraphModel%3E%3Croot%3E%3CmxCell%20id%3D%220%22%2F%3E%3CmxCell%20id%3D%221%22%20parent%3D%220%22%2F%3E%3CmxCell%20id%3D%222%22%20value%3D%22%26lt%3Bfont%20style%3D%26quot%3Bfont-size%3A%2048px%3B%26quot%3B%26gt%3B%26lt%3Bb%20style%3D%26quot%3B%26quot%3B%26gt%3B0XFFFFFFFF%26lt%3B%2Fb%26gt%3B%26lt%3B%2Ffont%26gt%3B%22%20style%3D%22text%3Bhtml%3D1%3Balign%3Dcenter%3BverticalAlign%3Dmiddle%3Bresizable%3D0%3Bpoints%3D%5B%5D%3Bautosize%3D1%3BstrokeColor%3Dnone%3BfillColor%3Dnone%3B%22%20vertex%3D%221%22%20parent%3D%221%22%3E%3CmxGeometry%20x%3D%223680%22%20y%3D%221810%22%20width%3D%22320%22%20height%3D%2270%22%20as%3D%22geometry%22%2F%3E%3C%2FmxCell%3E%3C%2Froot%3E%3C%2FmxGraphModel%3E&lt;/span&gt;" style="text;html=1;align=center;verticalAlign=middle;resizable=0;points=[];autosize=1;strokeColor=none;fillColor=none;" vertex="1" parent="1">
          <mxGeometry x="3640" y="1290" width="300" height="70" as="geometry" />
        </mxCell>
        <mxCell id="sg1HLdPA8sdvHH-0-MiF-66" value="&lt;font style=&quot;font-size: 48px;&quot;&gt;&lt;b style=&quot;&quot;&gt;0X0&lt;/b&gt;&lt;/font&gt;&lt;span style=&quot;color: rgba(0, 0, 0, 0); font-family: monospace; font-size: 0px; text-align: start;&quot;&gt;CmxGraphModel%3E%3Croot%3E%3CmxCell%20id%3D%220%22%2F%3E%3CmxCell%20id%3D%221%22%20parent%3D%220%22%2F%3E%3CmxCell%20id%3D%222%22%20value%3D%22%26lt%3Bfont%20style%3D%26quot%3Bfont-size%3A%2048px%3B%26quot%3B%26gt%3B%26lt%3Bb%20style%3D%26quot%3B%26quot%3B%26gt%3B0XFFFFFFFF%26lt%3B%2Fb%26gt%3B%26lt%3B%2Ffont%26gt%3B%22%20style%3D%22text%3Bhtml%3D1%3Balign%3Dcenter%3BverticalAlign%3Dmiddle%3Bresizable%3D0%3Bpoints%3D%5B%5D%3Bautosize%3D1%3BstrokeColor%3Dnone%3BfillColor%3Dnone%3B%22%20vertex%3D%221%22%20parent%3D%221%22%3E%3CmxGeometry%20x%3D%223680%22%20y%3D%221810%22%20width%3D%22320%22%20height%3D%2270%22%20as%3D%22geometry%22%2F%3E%3C%2FmxCell%3E%3C%2Froot%3E%3C%2FmxGraphModel%3E&lt;/span&gt;" style="text;html=1;align=center;verticalAlign=middle;resizable=0;points=[];autosize=1;strokeColor=none;fillColor=none;" vertex="1" parent="1">
          <mxGeometry x="3650" y="2130" width="110" height="70" as="geometry" />
        </mxCell>
        <mxCell id="sg1HLdPA8sdvHH-0-MiF-68" value="" style="endArrow=classic;html=1;rounded=0;strokeWidth=3;" edge="1" parent="1">
          <mxGeometry width="50" height="50" relative="1" as="geometry">
            <mxPoint x="3700" y="1630" as="sourcePoint" />
            <mxPoint x="3590" y="1610" as="targetPoint" />
          </mxGeometry>
        </mxCell>
        <mxCell id="sg1HLdPA8sdvHH-0-MiF-69" value="" style="endArrow=classic;html=1;rounded=0;strokeWidth=3;" edge="1" parent="1">
          <mxGeometry width="50" height="50" relative="1" as="geometry">
            <mxPoint x="3710" y="1790" as="sourcePoint" />
            <mxPoint x="3590" y="1800" as="targetPoint" />
          </mxGeometry>
        </mxCell>
        <mxCell id="sg1HLdPA8sdvHH-0-MiF-72" value="&lt;font color=&quot;#ff0000&quot; style=&quot;font-size: 36px;&quot;&gt;6&lt;/font&gt;" style="text;strokeColor=none;fillColor=none;html=1;fontSize=24;fontStyle=1;verticalAlign=middle;align=center;" vertex="1" parent="1">
          <mxGeometry x="2845" y="730" width="100" height="40" as="geometry" />
        </mxCell>
        <mxCell id="sg1HLdPA8sdvHH-0-MiF-74" value="&lt;font color=&quot;#ff0000&quot; style=&quot;font-size: 36px;&quot;&gt;7&lt;/font&gt;" style="text;strokeColor=none;fillColor=none;html=1;fontSize=24;fontStyle=1;verticalAlign=middle;align=center;" vertex="1" parent="1">
          <mxGeometry x="3330" y="290" width="100" height="40" as="geometry" />
        </mxCell>
      </root>
    </mxGraphModel>
  </diagram>
</mxfile>
